<svg version="1.1" id="astronaut_00000042703560665046393350000008744686166445724302_" xmlns="http://www.w3.org/2000/svg" xmlns:xlink="http://www.w3.org/1999/xlink" x="0px" y="0px" viewBox="0 0 233.32901 250" style="enable-background:new 0 0 233.32901 250;" xml:space="preserve"><defs><style> .svg-style-0 {  fill: rgb(0, 0, 0); }</style></defs><path id="path-01_00000080920163120014441220000000722929707662919092_" d="M231.54167,136.14474
	c1.88541-2.67207,2.30771-6.09589,1.13078-9.16056c-1.20348-3.13397-3.88156-5.44692-7.16428-6.18942
	c-13.61433-3.06988-27.22751-4.8147-40.45876-5.18536c-11.0824-0.31135-22.18846,0.33192-33.02589,1.90698
	c-0.19009-0.15091-0.366-0.29915-0.56352-0.45143c1.31201-1.49583,1.81682-3.55885,1.27342-5.52371l-2.13809-7.73965
	c-0.30107-1.09586-0.91861-2.03899-1.71967-2.77608c10.1123-6.79659,19.261-14.46754,27.19101-22.83899
	c0.05098-0.05384,0.0742-0.12067,0.11314-0.18079c0.61998,0.06834,1.25244,0.11901,1.90724,0.11901
	c2.26157,0,4.70773-0.51675,7.18736-2.30083c0.11192-0.08083,0.22385-0.13453,0.32193-0.11605
	c0.63692,0.07506,1.21155,0.06467,1.68462-0.02251c3.16849-0.35567,5.31467-2.79621,4.99274-5.67671
	c-0.06592-0.58849-0.23236-1.14067-0.48398-1.64298c0.05777-0.1346,0.11684-0.27866,0.18051-0.44711
	c0.07962-0.20786,0.15692-0.41109,0.22038-0.61951c0.04732-0.10336,0.07616-0.19862,0.09692-0.28465
	c0.04962-0.14954,0.09462-0.30081,0.12578-0.45901c0.08307-0.24884,0.14307-0.48903,0.18462-0.7298
	c0.00691-0.02598,0.0127-0.05312,0.01846-0.08025h0.00114c0.03333-0.14232,0.05164-0.28767,0.07674-0.43223l0.55096-0.29295
	c3.60118-1.85336,5.14619-5.27775,3.67387-8.14267c-0.72346-1.40705-2.07347-2.34528-3.79964-2.64205
	c-1.23924-0.21384-2.59683-0.06929-3.91107,0.38857c-0.1756-0.16231-0.35567-0.326-0.51512-0.44688
	c-0.44885-0.37645-0.96001-0.73326-1.55885-1.09008c-0.20308-0.12125-0.405-0.22979-0.5954-0.32506
	c-1.23462-0.65532-2.62848-1.12125-4.17003-1.38973c-0.25615-0.03868-0.5123-0.07621-0.72-0.09642
	c-0.26538-0.03753-0.52962-0.06351-0.80539-0.07795c-0.09692-0.0127-0.19269-0.0127-0.22845-0.01501
	c-2.93771-0.12587-5.93082,0.48441-8.67584,1.84354c-0.45692,0.23499-0.90231,0.48095-1.33731,0.74712
	c-5.1891,2.33121-10.56592,4.89582-16.01297,7.62022c1.84949-5.0123,2.81403-10.327,2.81403-15.73458
	c0-4.3961-0.64845-8.8026-1.92809-13.09766C148.25533,8.44876,122.7863-5.29729,98.69614,1.92274l-7.7389,2.31757
	c-8.79929,2.63397-16.49261,7.76795-22.24632,14.84594c-6.6485,8.13862-10.30968,18.391-10.30968,28.8674
	c0,0.48809,0.02005,0.97893,0.03621,1.46919L56.877,50.16035c-0.00043,0.00022-0.00065,0.00065-0.00108,0.00087
	c-0.00036,0.00022-0.00087,0.00007-0.00122,0.00029l-0.69231,0.3291c-1.84674,0.86894-3.27348,2.48674-4.01657,4.55603
	c-0.93231,2.59644-0.7252,5.65593,0.56712,8.39324l6.16851,13.10286c1.8427,3.90245,5.46696,6.28353,8.99718,6.28353
	c1.09039,0,2.17213-0.22749,3.18867-0.7067l0.6944-0.33018c0.00007,0,0.00014-0.00007,0.00021-0.00007l1.07236-0.50679
	c1.94115,1.8159,4.01614,3.44344,6.20182,4.87142c-5.50497,1.07867-10.00889,5.1674-11.16094,10.59736
	c-2.12251,10.00295-3.51983,20.11791-4.15387,30.06429c-0.45866,7.1975,5.10061,13.64906,12.65663,14.68601l4.75777,0.65366
	c-2.076,1.1626-4.15085,2.36838-6.2244,3.61217c-13.88152-10.98535-29.12739-14.35791-45.33428-9.99911
	c-1.09731,0.29561-1.92521,1.17436-2.16059,2.2933c-0.23539,1.12126,0.17019,2.26215,1.05866,2.97693
	c9.97182,8.0246,17.20714,14.98726,22.08729,21.25246c-2.52629,1.91687-5.04436,3.87444-7.54541,5.90152
	c-3.67769,0.94363-6.69675,2.69518-8.96819,5.21576c-1.14404,1.26906-1.45385,3.14436-0.78923,4.776l0.24353,0.59802
	c-8.47924-0.08885-18.04628,5.30791-29.18508,16.45638c-0.5827,0.58313-0.80481,1.4388-0.57981,2.23442
	c0.22558,0.79793,0.86654,1.41455,1.67193,1.60625c3.15175,0.75404,6.28504,1.16397,9.55795,1.25174
	c-3.97041,2.92958-8.44448,5.13283-13.30798,6.552c-0.88212,0.25751-1.51559,0.98154-1.6529,1.89032
	c-0.13789,0.91339,0.25558,1.79793,1.02808,2.30832c8.98795,5.93192,18.07166,8.35225,26.23691,8.35225
	c7.99246,0,15.08008-2.33727,20.35904-5.95609l0.85861,2.10849c0.66866,1.64088,2.21598,2.76675,3.9433,2.86838
	c0.34789,0.02078,0.69404,0.03117,1.03904,0.03117c3.11534,0,6.1186-0.83653,8.94778-2.47641
	c1.3741,0.01869,2.73701,0.02951,4.10058,0.02951c1.68729,0,3.36435-0.01674,5.03362-0.04604
	c0.12072,7.93459-1.13453,17.85909-3.8613,30.33839c-0.24347,1.11548,0.15634,2.25751,1.04308,2.9827
	C69.30804,249.76559,69.98132,250,70.66267,250c0.40961,0,0.82269-0.08545,1.21327-0.25751
	c15.2435-6.73257,24.96976-18.81003,28.94364-35.88484c41.19613-5.42987,75.93818-21.01291,103.59959-46.55911
	c2.45772-2.27109,4.87135-4.62952,7.23698-7.07071c2.87965-2.97165,5.67833-6.08022,8.40842-9.28911
	c1.05455-1.23953,2.09764-2.49503,3.12839-3.76828C226.06996,143.61679,228.86235,139.94688,231.54167,136.14474z
	 M230.46628,127.83176c0.22673,0.59035,0.37732,1.1914,0.45297,1.79302c0.22694,1.80486-0.22046,3.61491-1.30913,5.15736
	c-0.97969,1.39024-1.97461,2.7628-2.9817,4.12027c-0.34384,0.46341-0.69685,0.91505-1.04381,1.3745
	c-0.66902,0.88599-1.3371,1.77312-2.0175,2.64444c-0.42325,0.54185-0.85551,1.07152-1.28302,1.60762
	c-0.61667,0.77324-1.23181,1.54843-1.85735,2.30948c-0.46414,0.56467-0.93649,1.11778-1.40547,1.67567
	c-0.60072,0.71457-1.20052,1.43051-1.80894,2.13374c-0.49263,0.56937-0.9921,1.12804-1.4897,1.68982
	c-0.59712,0.67416-1.19424,1.34845-1.79836,2.01164c-0.51483,0.56517-1.03551,1.12088-1.55547,1.6779
	c-0.59813,0.64088-1.19691,1.28032-1.80153,1.91016c-0.53265,0.55493-1.06984,1.10185-1.60747,1.64818
	c-0.60477,0.61462-1.21111,1.22635-1.82201,1.82983c-0.54483,0.53833-1.09306,1.07016-1.64258,1.59953
	c-0.32741,0.3154-0.6577,0.62544-0.98677,0.93773c-2.13188-16.02132-8.55121-33.18562-17.15585-45.88274
	c0.4492,0.01812,0.89769,0.03371,1.3477,0.05507c0.73132,0.03465,1.46336,0.07188,2.19679,0.1149
	c0.87367,0.05124,1.74916,0.11078,2.6256,0.17386c0.73111,0.05261,1.4623,0.10602,2.19513,0.16686
	c0.88472,0.07347,1.77145,0.15704,2.65855,0.24249c0.7283,0.07022,1.45645,0.13908,2.18626,0.21731
	c0.90088,0.09657,1.8037,0.20497,2.70659,0.3138c0.7177,0.08653,1.43495,0.16975,2.15381,0.26393
	c0.92928,0.12175,1.86031,0.25736,2.79124,0.39203c0.69527,0.10054,1.38989,0.19588,2.08603,0.30363
	c0.9745,0.15076,1.95044,0.31741,2.92624,0.48225c0.65466,0.11057,1.30869,0.21391,1.96379,0.33076
	c1.08707,0.19392,2.17537,0.40597,3.26353,0.61714c0.54396,0.10558,1.08743,0.20215,1.63155,0.31207
	c1.63364,0.32983,3.26793,0.67733,4.90236,1.04591C227.49973,123.66891,229.54782,125.43798,230.46628,127.83176z
	 M130.62314,171.06581c0.02142,0.03868,0.04616,0.07591,0.06693,0.1149c0.12454,0.23318,0.23697,0.47026,0.33873,0.71016
	c0.03915,0.09274,0.0706,0.18829,0.10643,0.28233c0.15779,0.41145,0.28767,0.83005,0.37875,1.25644
	c0.0106,0.04979,0.021,0.09959,0.03058,0.14946c0.1425,0.73181,0.18361,1.48146,0.12743,2.23854
	c-0.00771,0.1011-0.01601,0.20215-0.02725,0.30327c-0.0246,0.22517-0.05336,0.45064-0.09576,0.67653
	c-0.02013,0.10617-0.04984,0.21161-0.07385,0.31763c-0.08098,0.36072-0.18498,0.72121-0.31175,1.08134
	c-0.05856,0.16527-0.11848,0.33032-0.18649,0.49445c-0.07097,0.17242-0.14554,0.34447-0.22717,0.5161
	c-0.12375,0.25851-0.25861,0.51494-0.40579,0.76906c-0.03671,0.06387-0.06664,0.12846-0.10486,0.19212
	c-0.01961,0.02771-0.03807,0.05542-0.05539,0.08429c-0.218,0.36374-0.46687,0.72359-0.74069,1.07796
	c-0.22789,0.2941-0.48541,0.57903-0.74626,0.86259c-0.07198,0.07779-0.1311,0.15913-0.20575,0.23615
	c-1.53462,1.59354-4.13194,2.24481-6.32427,1.57968c-6.94158-2.08546-13.58778-5.67325-19.75571-10.66519
	c-1.69559-1.36722-3.12405-3.79218-2.49751-6.11783c0.12577-0.45151,0.27289-0.88684,0.43731-1.2933
	c0.44712-1.10278,0.94443-2.39494,1.18732-3.78871c0.47993-2.74829,0.39931-5.2561-0.18837-7.28383
	c8.14924-4.7265,20.80161-4.73494,28.33405,3.22267c-0.43689,2.18607-1.06841,4.50133-1.89637,6.93625
	c-1.63068-0.978-3.53353-1.77275-5.7084-2.33467c-0.63231-0.16283-1.27501,0.21709-1.44001,0.84988
	c-0.16269,0.6328,0.21808,1.27715,0.84924,1.44112c2.56847,0.66261,4.70325,1.66319,6.35766,2.92958
	c0.14986,0.11533,0.29417,0.23363,0.43543,0.35335c0.20554,0.17293,0.39729,0.35292,0.58545,0.53502
	c0.24554,0.23975,0.4769,0.48578,0.69101,0.73932c0.09129,0.10724,0.18022,0.21558,0.26596,0.32549
	C130.12569,170.24753,130.39337,170.65047,130.62314,171.06581z M132.55014,147.56413
	c-0.38106-2.5807-1.17303-4.88124-2.39186-6.8824c-2.89964-4.75984-8.08736-7.65248-15.42184-8.59706
	c-0.63808-0.07159-1.23924,0.37415-1.32232,1.02196c-0.08366,0.64781,0.37385,1.24019,1.02116,1.32448
	c6.58678,0.84758,11.19758,3.36493,13.7049,7.48158c2.04082,3.3504,2.70889,7.86227,2.01831,13.31424
	c-8.35174-7.50951-21.2299-7.35289-29.75422-2.53891c-0.15945-0.25766-0.32366-0.50983-0.50871-0.73601
	c-0.58154-0.71248-1.41809-1.22403-2.48656-1.5231c-10.01949-2.78177-15.8205-9.82339-17.24147-20.93201
	c-0.00598-0.04597-0.00887-0.09425-0.01471-0.1403c11.45236-1.20865,21.48787-2.6199,30.62084-4.30986
	c4.4062,2.0439,8.44505,3.50522,11.35609,4.44785c1.2127,0.4007,2.32501,0.73904,3.40502,1.03581
	c0.90693,0.24596,1.68925,0.86259,2.14156,1.68246c2.65502,4.88571,6.39004,8.14323,10.80007,9.42154
	c0.79753,0.23102,1.61186,0.38489,2.43701,0.47906C138.50079,144.43111,135.69289,146.26266,132.55014,147.56413z
	 M107.1924,123.28612c-8.21451,1.43058-17.18565,2.65115-27.26312,3.71495c-0.1694-2.44719-0.14481-5.04117,0.0768-7.78108
	c6.30178-0.85098,11.81252-1.65143,16.79211-2.43976C100.13513,119.32095,103.70978,121.47981,107.1924,123.28612z
	 M139.13295,139.36302c-3.79041-1.09816-7.03389-3.96193-9.38429-8.28644c-0.76385-1.38454-2.07463-2.41571-3.59195-2.82796
	c-0.54656-0.14969-1.10683-0.31337-1.68433-0.48983c4.89991-6.80122,10.47988-11.96471,16.24114-15.01713
	c3.95901,2.39558,6.7988,4.27795,9.10875,6.04038c4.73311,3.60972,7.18967,6.75639,7.51044,9.619
	c0.20885,1.85683-0.45924,3.68016-2.04233,5.5751c-1.09616,1.31641-2.57541,2.50116-4.39388,3.5208
	C146.828,139.76833,142.76183,140.41498,139.13295,139.36302z M142.46645,107.60415
	c0.00577-0.03926,0.00807-0.07968,0.00923-0.11952c0.01961-0.94804,0.90692-1.71941,1.97655-1.71941
	c1.07539,0,1.95348,0.75924,1.98232,1.70209c-0.0023,0.03407-0.00461,0.06755-0.00461,0.09469l-0.00577,0.57853
	c-0.00232,0.07736-0.01846,0.3672-0.01732,0.3724c-0.12,0.99712-0.95885,1.74828-1.95462,1.74828
	c-1.09386,0-1.98347-0.8903-1.98347-1.98846L142.46645,107.60415z M150.45572,112.17173
	c0.34595,1.2508-0.00815,2.56844-0.89906,3.48075c-1.33847-0.95425-2.85031-1.96255-4.60661-3.07306
	c1.97092-0.23016,3.57002-1.78242,3.81067-3.87077c0,0,0.02769-0.53638,0.02654-0.54099l0.00462-0.52888
	c0.00461-0.04272,0.00693-0.08776,0.00693-0.1224c0-2.26965-1.95001-4.11608-4.34657-4.11608
	c-2.29271,0-4.20349,1.72807-4.33272,3.88282c-0.01155,0.06409-0.01616,0.12933-0.01616,0.19515l0.0023,0.79793
	c0,0.42509,0.08034,0.82787,0.1945,1.21652c-2.02098-1.68462-4.06042-3.3048-6.2104-4.88406l9.79593-2.70549
	c0.22615-0.06409,0.48-0.10508,0.75809-0.12413c1.67654-0.08199,3.22617,1.02252,3.67386,2.65128L150.45572,112.17173z
	 M171.53203,55.94849c0.07846-0.02829,0.15346-0.06466,0.22385-0.10854c0.41077-0.2552,0.83192-0.48788,1.24731-0.70208
	c2.13348-1.05659,4.46542-1.61491,6.74312-1.61491c0.255,0,0.50885,0.01097,0.75348,0.01328
	c0.05653,0.01097,0.11423,0.0179,0.17192,0.02079c0.22154,0.01039,0.43385,0.0306,0.69347,0.06639
	c0.21692,0.02136,0.43385,0.05428,0.62424,0.08314c1.27039,0.22113,2.4277,0.60624,3.46733,1.15763
	c0.16269,0.08083,0.31384,0.16166,0.46732,0.25404c0.32091,0.19075,0.60078,0.38301,0.86949,0.58148l-7.79378,3.62062
	c-0.59193,0.27541-0.84924,0.97807-0.57462,1.57045c0.27577,0.59181,0.97847,0.84989,1.56924,0.57506l9.01736-4.19056
	c1.26578-0.65128,2.58348-0.90243,3.70734-0.70901c0.97731,0.16802,1.7227,0.66282,2.0977,1.3932
	c0.85962,1.67265-0.23077,3.71134-2.67232,4.96886l-7.08467,3.76619c-0.57693,0.30601-0.79732,1.02137-0.49155,1.59874
	c0.21231,0.4007,0.62193,0.62875,1.04539,0.62875c0.18692,0,0.37616-0.04388,0.55154-0.13741l1.49481-0.79482
	c1.24112,0.26047,2.13701,1.14088,2.26445,2.28213c0.17307,1.54101-1.07655,2.85799-2.98157,3.0745
	c-0.31731,0.05601-0.66924,0.0612-1.06847,0.0127c-0.6727-0.07621-1.37656,0.11259-1.97887,0.54388
	c-2.79924,2.01445-5.44041,2.10221-8.54428,1.61317c-0.64386-0.10393-1.24963,0.33892-1.35117,0.98442
	c-0.02148,0.13799-0.00685,0.27158,0.01781,0.40141c-1.51595,1.59044-3.07062,3.13831-4.65205,4.65974
	c-4.52332-6.53122-7.11192-13.17618-8.08765-20.82411C164.75191,59.05988,168.18297,57.45305,171.53203,55.94849z
	 M159.05548,61.81992c1.11519,7.82742,3.85474,14.67107,8.57681,21.39795c-6.31195,5.88319-13.17638,11.26984-20.77739,16.32177
	c-1.45963-5.3868-3.04321-9.85125-4.96193-13.96855c-0.27693-0.59122-0.97963-0.84931-1.57039-0.57159
	c-0.59077,0.27598-0.84694,0.9798-0.57117,1.5716c1.7747,3.80624,3.25639,7.93185,4.62444,12.86188
	c-0.40854,0.03421-0.78462,0.09534-1.12711,0.19305l-11.63971,3.21495c-4.65184-3.21358-9.93751-6.30013-16.71452-9.48866
	c-0.58904-0.28002-1.2952-0.02483-1.57155,0.56698c-0.27808,0.59065-0.02423,1.29504,0.56654,1.57276
	c10.97806,5.1656,17.97179,10.05694,24.75038,15.69302c-5.96809,3.38592-11.5231,8.68661-16.5366,15.81044
	c-5.66182-1.89169-18.10462-6.67968-27.08334-14.73718c-0.48693-0.43649-1.23289-0.39607-1.66848,0.09122
	c-0.43558,0.48615-0.39462,1.23384,0.09116,1.66976c0.28753,0.25808,0.58681,0.50253,0.88017,0.75397
	c-4.24943,0.65654-8.89304,1.32507-14.07594,2.0275c0.9176-7.73828,3.30356-16.55366,7.13277-26.35445
	c5.3096,2.07983,10.97691,3.16233,16.69923,3.16233c4.35753,0,8.74622-0.62472,13.0299-1.90648l7.73832-2.31757
	c10.41814-3.11376,19.3836-9.85746,25.24056-18.98338c1.18097-1.82406,2.22174-3.72007,3.12378-5.67188
	C155.17023,63.73528,157.117,62.76955,159.05548,61.81992z M152.28574,51.53449
	c-2.37117,11.11324-10.01083,19.9805-20.97476,24.33446c-5.83042,2.39609-11.707,3.61088-17.46589,3.61088h-0.00288
	c-19.64668-0.00115-35.7291-14.43716-38.24104-34.32586c-1.27616-10.09822,3.2781-20.04112,11.88412-25.94821
	c11.31239-7.76391,22.59361-11.73391,33.52408-11.79915h0.18c7.63274,0,14.97126,3.04275,20.1359,8.34763
	C150.73265,25.41654,154.93268,39.12679,152.28574,51.53449z M76.23925,77.06699l-4.24734,2.00752
	c-3.51579-10.84938-7.83006-20.04575-12.84009-27.37374l4.22426-1.99655c0.97213-0.46016,2.14098-0.10855,2.71906,0.81698
	c4.48273,7.1721,8.26275,15.21777,11.2345,23.91356C77.68503,75.47403,77.21599,76.60567,76.23925,77.06699z M61.03895,75.53349
	l-6.1685-13.10286c-1.02751-2.17495-1.20232-4.57451-0.48058-6.58376c0.50611-1.41059,1.40698-2.46393,2.59574-3.09298
	c5.01133,7.24738,9.32502,16.42808,12.83562,27.32885C66.7307,81.33983,62.84358,79.35685,61.03895,75.53349z M77.24887,79.20557
	c2.06597-0.97633,3.06175-3.35683,2.31694-5.53641c-3.0306-8.86668-6.88909-17.0769-11.46758-24.40201
	c-1.21328-1.94112-3.67618-2.67265-5.73119-1.70151l-1.59362,0.75318c-0.00108-0.12154-0.00909-0.24379-0.00909-0.36518
	c0-9.93251,3.47195-19.65313,9.77834-27.37316c5.45484-6.71021,12.74836-11.57687,21.09187-14.07457l7.73948-2.31757
	c10.29282-3.08374,20.84841-2.11996,29.9713,1.95065c-2.63274-0.71522-5.37538-1.09729-8.15595-1.09729h-0.18693
	C109.5839,5.1104,97.85786,9.21955,86.14912,17.2554c-9.33987,6.41055-14.27953,17.21432-12.89259,28.19534
	c2.6631,21.08674,19.73206,36.39285,40.58567,36.394h0.00288c6.06812,0,12.24701-1.27484,18.3509-3.78294
	c11.52773-4.57798,19.61264-13.86434,22.27385-25.52081c-0.94868,5.87821-3.09059,11.51632-6.36797,16.57791
	c-5.55466,8.65479-14.05396,15.04745-23.93209,18.00012l-7.73833,2.31757c-14.41972,4.31477-30.07622,0.75455-41.25447-9.25179
	L77.24887,79.20557z M66.09975,126.96571c0.62654-9.83205,2.00829-19.83212,4.10657-29.72306
	c1.16215-5.47456,6.47356-9.30109,12.42852-8.98c0.84412,0.44768,1.69718,0.87551,2.56509,1.26826
	c-6.27747,16.05244-8.76489,29.60152-7.37587,40.26852c0.47279,3.69583,1.42768,7.00301,2.8374,9.90192l-3.94221-0.54158
	C70.38402,138.28911,65.71898,132.93341,66.09975,126.96571z M29.97546,139.19557c-0.27981-0.22517-0.25154-0.52771-0.22616-0.64781
	c0.02481-0.11778,0.11942-0.403,0.46154-0.49538c15.16604-4.08447,29.46749-1.03256,42.54008,9.01897
	c-6.805,4.17706-13.58332,8.78621-20.28786,13.78848C47.4671,154.4415,40.10162,147.3438,29.97546,139.19557z M2.34123,209.15331
	c5.36542-1.56583,10.2843-4.03813,14.61933-7.34761c0.73039-0.55774,1.01597-1.4827,0.72693-2.35684
	c-0.29135-0.88106-1.0777-1.45844-2.00367-1.46999c-3.29195-0.04272-6.42581-0.42609-9.5741-1.16859
	c11.08933-11.07332,20.39344-16.19353,28.39426-15.61903l12.24146,30.06233C36.80967,218.35112,19.45707,220.3932,2.34123,209.15331
	z M52.59158,216.09447c-0.82328-0.04851-1.56636-0.59816-1.8929-1.39955l-14.04074-34.4808
	c0.04557-0.40063-0.12815-0.76234-0.41106-1.00954l-0.77849-1.91174c-0.32481-0.79793-0.1852-1.70094,0.35538-2.30025
	c1.79309-1.99078,4.14811-3.43306,7.01082-4.29564l17.76012,43.6377C58.05278,215.6649,55.36602,216.25497,52.59158,216.09447z
	 M62.86637,213.64635l-17.89599-43.97142c12.49415-10.08704,25.32725-18.80217,38.17101-25.9278
	c3.23714,4.30394,7.80936,7.34329,13.63416,8.96008c0.40501,0.11316,0.9577,0.33372,1.29116,0.74249
	c1.35693,1.65822,1.77348,4.67902,1.14405,8.28758c-0.20366,1.16399-0.64847,2.31642-1.05001,3.30719
	c-0.08884,0.21925-0.15634,0.46645-0.23618,0.6981c-0.02358,0.03949-0.05957,0.06728-0.07883,0.11021
	c-0.2198,0.48961-0.81635,2.06122-0.96001,2.58893c-0.85847,3.15129,0.25616,6.53815,2.84079,8.62939
	c6.41254,5.18248,13.32875,8.9146,20.55707,11.09244c0.79039,0.23672,1.59578,0.35336,2.39425,0.35336
	c2.2431,0,4.43195-0.91341,6.05774-2.6051c0.37614-0.3903,0.88962-1.07391,1.26578-1.57391l0.18462-0.24481
	c0.00699-0.00923,0.00778-0.02063,0.0145-0.03001c0.04659-0.04857,0.08336-0.10147,0.12915-0.15041
	c0.35944-0.381,0.69736-0.77007,1.00386-1.16896c0.02415-0.03154,0.04305-0.06488,0.06685-0.0965
	c0.27707-0.36691,0.5426-0.7373,0.77258-1.11534c0.015-0.02193,0.03-0.04503,0.04384-0.06697
	c0.31039-0.50952,0.56914-1.0275,0.80028-1.54858c0.01427-0.03233,0.0295-0.0643,0.04355-0.09671
	c0.40198-0.92674,0.67876-1.86563,0.8351-2.80479c0.0202-0.11705,0.04054-0.23354,0.05705-0.35081
	c0.05452-0.40569,0.09332-0.81093,0.10291-1.21429c0.00706-0.23152-0.00699-0.46109-0.01463-0.69189
	c-0.00642-0.16058-0.01378-0.32074-0.02727-0.48038c-0.05394-0.68874-0.14978-1.37357-0.33966-2.04353
	c-0.05611-0.1981-0.14705-0.38121-0.21376-0.57484c-0.03453-0.09981-0.07304-0.19833-0.11061-0.29735
	c-0.20035-0.53133-0.44006-1.04417-0.71986-1.5392c-0.03311-0.05853-0.06526-0.1172-0.09946-0.17537
	c-0.31082-0.52757-0.6644-1.03293-1.06371-1.51553c-0.03894-0.04749-0.07399-0.09663-0.1138-0.14369
	c-0.19774-0.23181-0.40457-0.45772-0.6225-0.67841c-0.21765-0.22258-0.44936-0.43765-0.68764-0.64926
	c-0.075-0.06604-0.13853-0.13872-0.21555-0.2036c1.6989-4.61514,2.74394-8.56789,3.18918-12.05081
	c0.04962-0.35681,0.08769-0.71478,0.12346-1.07159c0.00116-0.00925,0.00923-0.11548,0.00923-0.12471
	c0.03412-0.43001,0.06679-0.85106,0.08864-1.27982c0.00006-0.00195,0.0013-0.00346,0.00137-0.00542
	c0.00627-0.13107,0.00345-0.24408,0.008-0.37161c0.00714-0.25642,0.015-0.51567,0.01616-0.75261
	c0.00296-0.33148-0.00224-0.65271-0.01241-0.96248c4.16881-1.69414,7.78952-4.22289,10.76178-7.51614
	c0.04817-0.05333,0.0688-0.11887,0.1055-0.17783c1.23982-0.11395,2.49615-0.37283,3.75984-0.77129
	c-4.62955,3.09253-7.94479,8.06204-8.70576,13.84181c-0.14192,1.00348-0.20192,2.02773-0.17769,3.03928
	c0.22385,10.79338,9.06238,19.42046,19.79091,19.42046c0.13731-0.00116,0.27577-0.0023,0.41423-0.00462
	c10.537-0.21362,19.05821-8.62129,19.39975-19.13869c0.0127-0.35451,0.02423-0.72171,0.0127-1.08893
	c-0.22615-10.79222-9.07968-19.4239-19.82552-19.4239c-0.13039,0-0.26193,0.00114-0.39232,0.00346
	c-1.78241,0.03839-3.51492,0.3239-5.16595,0.81705c1.54199-0.99568,2.8506-2.11317,3.87711-3.34593
	c1.98924-2.38339,2.85579-4.858,2.57655-7.35571c-0.31226-2.78141-2.01196-5.55626-5.24434-8.56277
	c9.85283-1.31806,19.91473-1.86332,29.95203-1.61101c9.22255,12.96306,16.06606,31.23375,17.97871,48.00096
	C167.08398,198.32457,120.14347,214.36279,62.86637,213.64635z M158.4427,140.38612c0.11539-0.00232,0.23077-0.00348,0.345-0.00348
	c9.46507,0,17.26512,7.60745,17.46127,17.11444c0,0.00577,0,0.01039,0.00116,0.01501
	c0.01039,0.31639-0.00116,0.63164-0.01154,0.9388c-0.30116,9.26334-7.80698,16.6664-17.08743,16.85347
	c-9.64622,0.18591-17.59396-7.47234-17.79358-17.10289c-0.02193-0.88684,0.03114-1.78061,0.15576-2.66745
	C142.62683,147.08246,149.90533,140.56972,158.4427,140.38612z M70.92171,247.57851
	c-0.32654,0.14319-0.57808-0.01964-0.67039-0.09584c-0.09461-0.07738-0.30634-0.29446-0.22961-0.64551
	c2.76802-12.66983,4.04065-22.78046,3.91467-30.90523c8.35376-0.21701,16.48006-0.80031,24.37092-1.75534
	C94.38707,230.03473,85.19077,241.2765,70.92171,247.57851z M78.94331,94.44528c-0.32423-0.51212-0.83712-0.84931-1.40655-0.92495
	l-2.99599-0.39954c-1.34135-0.17783-2.57194,0.80832-3.00579,2.39897c-2.58925,9.48621-4.10887,20.29633-4.51676,32.1307
	c-0.05827,1.68477,0.88963,3.03928,2.25291,3.22058l2.96425,0.39607c0.08192,0.01039,0.16385,0.01616,0.24519,0.01616
	c0.47712,0,0.95078-0.18245,1.32924-0.51848c0.48923-0.43417,0.76558-1.06583,0.75693-1.7321
	c-0.14192-11.77895,1.36732-22.47417,4.61427-32.69595C79.38465,95.69472,79.29812,95.00533,78.94331,94.44528z M72.24056,128.88258
	l-2.64348-0.35104c-0.06173-0.03696-0.23423-0.30486-0.21692-0.80024c0.40154-11.65077,1.89347-22.27844,4.43484-31.58797
	c0.12634-0.46421,0.35712-0.66283,0.41365-0.67841l2.63772,0.35162C73.59576,106.19074,72.06922,117.03204,72.24056,128.88258z
	 M158.80733,169.62996c0.07961,0,0.16153-0.00116,0.24115-0.0023c5.02158-0.11548,9.42815-3.40996,10.96507-8.20099
	c0.39116-1.23096,0.57808-2.51387,0.5527-3.8118c0,0,0,0,0-0.00116c-0.13039-6.41344-5.38504-11.5428-11.76585-11.5428
	c-0.07962,0-0.16039,0.00116-0.24001,0.00232c-6.48351,0.13278-11.65047,5.52197-11.51892,12.05435
	C147.19724,164.51907,152.44958,169.62996,158.80733,169.62996z M158.60886,148.43813
	c0.06346-0.00114,0.12808-0.0023,0.19154-0.0023c5.09888,0,9.2989,4.09933,9.40276,9.22523
	c0.02077,1.03812-0.12808,2.06352-0.44077,3.04506c-1.22887,3.83028-4.75157,6.46539-8.76468,6.55663
	c-0.06462,0.00114-0.12923,0.0023-0.1927,0.0023c-5.07811,0-9.27698-4.08548-9.40044-9.22523
	C149.29842,152.8504,153.42805,148.54321,158.60886,148.43813z M123.264,9.48341c-0.05193,0-0.10385,0.00058-0.15462,0.00058
	c-10.46719,0.06236-20.88361,3.74829-31.84061,11.26855c-7.67025,5.26447-11.73066,14.10748-10.59757,23.07867
	c1.42905,11.31589,7.98121,21.39621,17.52647,26.96438c5.38158,3.13859,11.39893,4.71481,17.69724,4.71481
	c5.33485,0,10.86989-1.13049,16.39108-3.39898C142.42952,68.08368,149.21996,60.217,151.40881,49.96
	c2.4381-11.43368-1.45848-24.09485-10.17123-33.04179C136.63255,12.18781,130.08905,9.48341,123.264,9.48341z M149.09764,49.46635
	c-2.0181,9.45849-8.29852,16.72009-17.69667,20.45221c-11.35622,4.66631-22.72515,4.25118-32.0131-1.16629
	c-8.91468-5.1998-15.03472-14.62712-16.37204-25.21783c-1.02174-8.08781,2.65271-16.07055,9.5891-20.83155
	c10.55604-7.24427,20.5386-10.79511,30.5183-10.854c0.0473-0.00058,0.09346-0.00058,0.14077-0.00058
	c6.19158,0,12.11893,2.44459,16.28204,6.72002C147.71301,26.95696,151.37305,38.79596,149.09764,49.46635z" class="svg-style-0"/></svg>