<?xml version="1.0" encoding="UTF-8" standalone="no" ?>
<!DOCTYPE svg PUBLIC "-//W3C//DTD SVG 1.1//EN" "http://www.w3.org/Graphics/SVG/1.1/DTD/svg11.dtd">
<svg xmlns="http://www.w3.org/2000/svg" xmlns:xlink="http://www.w3.org/1999/xlink" version="1.1" width="1280" height="1024" viewBox="0 0 1280 1024" xml:space="preserve">
<desc>Created with Fabric.js 5.3.0</desc>
<defs>
</defs>
<g transform="matrix(1 0 0 1 640 512)" id="background-logo"  >
<rect style="stroke: none; stroke-width: 0; stroke-dasharray: none; stroke-linecap: butt; stroke-dashoffset: 0; stroke-linejoin: miter; stroke-miterlimit: 4; fill: rgb(255,255,255); fill-opacity: 0; fill-rule: nonzero; opacity: 1;"  paint-order="stroke"  x="-640" y="-512" rx="0" ry="0" width="1280" height="1024" />
</g>
<g transform="matrix(1.9211538461538462 0 0 1.9211538461538462 640 400.5191941203231)" id="logo-logo"  >
<g style=""  paint-order="stroke"   >
		<g transform="matrix(2.4594716415461537 0 0 2.4594716415461533 0 39.433046514365856)"  >
<polygon style="stroke: none; stroke-width: 1; stroke-dasharray: none; stroke-linecap: butt; stroke-dashoffset: 0; stroke-linejoin: miter; stroke-miterlimit: 4; fill: rgb(7,55,84); fill-rule: nonzero; opacity: 1;"  paint-order="stroke"  points="37.689231899999996,-14.274227149999994 0,2.9934120500000034 -0.4788169999999994,2.77475355 -37.6894388,-14.274154649999993 -50,-8.633892049999993 0,14.274227150000002 50,-8.633892049999993 " />
</g>
		<g transform="matrix(2.4594716415461537 0 0 2.4594716415461533 0.00000245947165922189 7.748157995213717)"  >
<path style="stroke: none; stroke-width: 1; stroke-dasharray: none; stroke-linecap: butt; stroke-dashoffset: 0; stroke-linejoin: miter; stroke-miterlimit: 4; fill: rgb(11,82,127); fill-rule: nonzero; opacity: 1;"  paint-order="stroke"  transform=" translate(-50.000001, -53.150335299999995)" d="M 80.6588364 39.7994041 L 80.6241455 39.8153114 L 74.10838319999999 42.8004951 L 81.368721 46.1268463 L 81.13926699999999 46.2319755 L 79.76112369999998 46.863365099999996 L 78.38256079999998 47.4949683 L 50 60.4986649 L 21.6168785 47.4951782 L 20.2380352 46.8634376 L 18.8601723 46.232254 L 18.6301556 46.1268463 L 25.890493399999997 42.8005638 L 19.340322499999996 39.7998237 L 5.5305119 46.1268463 L 12.310421 49.2332039 L 13.6880732 49.8643875 L 15.0669871 50.4961281 L 50 66.5012665 L 84.93301389999999 50.4961281 L 86.3115768 49.8645249 L 87.6895752 49.2332039 L 94.46949009999999 46.1268463 L 80.6588364 39.7994041 z M 21.6161079 46.2320442 L 22.9950218 46.8637848 L 50 59.2360229 L 77.00448610000001 46.8635749 L 78.38298040000001 46.231975500000004 L 78.61243440000001 46.126846300000004 L 72.73023990000002 43.431884800000006 L 72.50078590000001 43.537014000000006 L 71.12229160000001 44.16854480000001 L 59.40478520000001 49.53688050000001 L 59.40590670000002 49.53744130000001 L 50 53.8456802 L 40.5952148 49.537441199999996 L 40.5955658 49.537300099999996 L 28.877147700000002 44.16882699999999 L 27.4982338 43.53715129999999 L 27.268636700000002 43.43195719999999 L 21.386440300000004 46.12684629999999 L 21.6161079 46.2320442 z" stroke-linecap="round" />
</g>
		<g transform="matrix(2.4594716415461537 0 0 2.4594716415461533 -0.0013827149568896857 -35.64631878793483)"  >
<path style="stroke: none; stroke-width: 1; stroke-dasharray: none; stroke-linecap: butt; stroke-dashoffset: 0; stroke-linejoin: miter; stroke-miterlimit: 4; fill: rgb(18,131,202); fill-rule: nonzero; opacity: 1;"  paint-order="stroke"  transform=" translate(-49.999437799999995, -35.50651455)" d="M 21.7768116 38.3901443 L 22.0969582 38.536830900000005 L 28.6469899 41.53771210000001 L 28.8766576 41.642906200000006 L 29.335920400000003 41.853302000000006 L 30.025133200000003 42.169101700000006 L 30.2546597 42.274230900000006 L 31.633503 42.90597150000001 L 43.3979645 48.295684800000004 C 47.228508 46.753894800000005 52.767498 46.7531242 56.6018257 48.295753500000004 L 68.3661499 42.905830400000006 L 69.7446365 42.27423100000001 L 69.97416679999999 42.16910180000001 L 70.66345209999999 41.85330210000001 L 71.12299339999998 41.64276900000001 L 71.35224139999998 41.53771220000001 L 77.90254959999999 38.536689900000006 L 78.22220599999999 38.390213200000005 C 77.62782279999999 37.87586230000001 77.25013719999998 37.354294 77.03098289999998 36.87449660000001 C 76.78827659999999 36.34311310000001 76.72183979999998 35.86359420000001 76.72183979999998 35.505954900000006 C 76.72183979999998 35.495300500000006 76.72393789999998 35.481636200000004 76.72408279999999 35.4707719 C 76.73136889999999 34.7879373 76.98914319999999 33.6895028 78.22178639999998 32.6226045 L 56.60119239999999 22.716995400000002 C 55.04608909999999 23.3425714 53.22101589999999 23.715139500000003 51.32410799999999 23.833233000000003 C 50.883273999999986 23.860635900000002 50.44265349999999 23.892664100000005 49.99887839999999 23.892664100000005 C 49.555732599999985 23.892664100000005 49.11581409999999 23.860706500000006 48.67561329999999 23.833372300000004 C 46.77807229999999 23.715631700000003 44.952861699999985 23.343200900000003 43.397895699999985 22.717346400000004 L 21.777231099999984 32.622677100000004 C 23.010650499999983 33.6897128 23.267650499999984 34.788357000000005 23.274799199999983 35.471264100000006 C 23.274938399999982 35.481914700000004 23.27704029999998 35.49551030000001 23.27704029999998 35.50595500000001 C 23.27704029999998 35.863666800000004 23.210811399999983 36.343254300000005 22.968108899999983 36.87463400000001 C 22.749094 37.3543625 22.3713379 37.8758621 21.7768116 38.3901443 z M 35.2323456 32.5188789 C 34.8722496 32.272884299999994 34.4649201 32.0371208 34.021705600000004 31.810396199999996 C 33.8454399 31.720268299999997 33.674644400000005 31.628456099999998 33.485836000000006 31.541973099999996 L 32.66815950000001 31.167510999999998 L 31.206127200000008 30.497993499999996 L 39.06793220000001 26.896207799999996 L 39.54674920000001 27.115432699999996 C 39.87838750000001 27.267444599999997 40.224887900000006 27.408454899999995 40.579094000000005 27.542947699999996 C 41.09302530000001 27.738132399999994 41.63204580000001 27.911241499999996 42.18641290000001 28.069633399999997 C 42.76909650000001 28.236083899999997 43.37133420000001 28.381158699999997 43.98905950000001 28.5068912 C 47.80754480000001 29.2842693 52.192455300000006 29.2842693 56.01094060000001 28.5068912 C 56.628524800000015 28.381158799999998 57.23069390000001 28.236154499999998 57.813236300000014 28.069772699999998 C 58.367744500000015 27.911382699999997 58.906833700000014 27.738203 59.42090610000001 27.5429477 C 59.77511220000001 27.408454799999998 60.12161260000001 27.2674445 60.45325090000001 27.1154327 L 60.93206790000001 26.8962078 L 68.79163360000001 30.4979935 L 67.3310699 31.16716 L 66.5130386 31.5419731 C 66.3243026 31.6284561 66.1536483 31.7201271 65.9774551 31.810255 C 65.5343093 32.036911 65.1270523 32.2725334 64.7670211 32.518531700000004 C 63.41109839999999 33.444908000000005 62.655586199999995 34.4876975 62.655586199999995 35.5059546 C 62.655586199999995 36.550495000000005 63.44305799999999 37.6218756 64.8654937 38.5657767 C 65.3450088 38.8839606 65.8958739 39.1877745 66.5141601 39.471057800000004 L 68.7916335 40.515037400000004 L 68.7266616 40.5448226 L 68.267044 40.755428200000004 L 67.577835 41.071227900000004 L 67.34831229999999 41.1763533 L 65.96988669999999 41.8079565 L 60.93206779999999 44.1162603 L 60.45437229999999 43.8970373 C 54.688377299999985 41.2562521 45.311622499999984 41.2562521 39.54562749999999 43.8970373 L 39.067931999999985 44.1162603 L 34.029342499999984 41.8082388 L 32.650428599999984 41.1766356 L 32.420902099999985 41.0714377 L 31.731620599999985 40.7557067 L 31.272216599999986 40.5453147 L 31.206126999999984 40.5150374 L 33.484714299999986 39.4710578 C 34.102512199999985 39.1879882 34.653163699999986 38.884380199999995 35.13240409999999 38.566474799999995 C 36.555541799999986 37.6223677 37.34329199999999 36.55077349999999 37.34329199999999 35.505954599999995 C 37.3432922 34.4878349 36.5879898 33.4451866 35.2323456 32.5188789 z M 19.3545494 37.2799339 C 19.3816719 37.265216800000005 19.4010162 37.2488174 19.427578 37.2339592 C 20.3941136 36.6931877 20.9805107 36.0565376 20.9805107 35.505954700000004 C 20.9805107 34.940792 20.3694439 34.282558400000006 19.35462 33.73253630000001 L 19.3545494 33.73253630000001 L 19.0529747 33.87074280000001 L 15.4836397 35.506515500000006 L 19.3408832 37.273696900000004 L 19.3545494 37.2799339 z M 53.4376488 21.2676468 C 53.4377861 21.2676468 53.4379273 21.2675781 53.4380684 21.2675781 L 50 19.6926365 L 46.5619316 21.268137 C 48.7450676 21.6841602 51.2567558 21.6847897 53.4376488 21.2676468 z M 53.4380684 49.7448921 C 51.2548637 49.3277473 48.744224599999995 49.3277473 46.5610199 49.7448921 C 46.5609512 49.7448921 46.5608826 49.7448921 46.5608101 49.7448921 L 50 51.3203926 L 53.4380684 49.7448921 z M 80.5684967 37.2321358 C 80.5960388 37.247627300000005 80.6161575 37.2646561 80.6443329 37.279934000000004 L 80.65855409999999 37.273418500000005 L 84.5152359 35.50651560000001 L 80.6443329 33.73253640000001 C 79.63062289999999 34.28255850000001 79.01836399999999 34.94079220000001 79.01836399999999 35.505954800000005 C 79.018364 36.0559769 79.6048355 36.6917152 80.5684967 37.2321358 z M 39.9399223 36.5739746 C 39.996692599999996 36.6867371 40.0538826 36.799366 40.1278915 36.908905 C 40.23434829999999 37.0663871 40.3598709 37.219944 40.5002479 37.369922599999995 C 40.5455245 37.41835019999999 40.6006812 37.464256199999994 40.649391099999995 37.511844599999996 C 40.93652719999999 37.79225159999999 41.280921899999996 38.057102199999996 41.6774596 38.3042221 C 42.7857779 38.9949722 44.2855147 39.5449257 46.036647699999996 39.878459899999996 C 47.25731269999999 40.111 48.5949439 40.24051659999999 49.999297999999996 40.24051659999999 C 51.403861899999995 40.24051659999999 52.741706799999996 40.11093129999999 53.9625091 39.878387399999994 C 55.713714499999995 39.54471579999999 57.2135238 38.9946212 58.3217697 38.303871099999995 C 58.7181663 38.056751199999994 59.062351199999995 37.79204169999999 59.3494186 37.511634799999996 C 59.3981285 37.464046499999995 59.4534263 37.4180717 59.4987678 37.369644099999995 C 59.63908 37.219661599999995 59.7644615 37.0661048 59.870918200000006 36.9086265 C 59.94499580000001 36.7990837 60.00211710000001 36.6863174 60.0589561 36.5734825 C 60.087688400000005 36.5162926 60.117824500000005 36.4595947 60.1420059 36.4017067 C 60.2633934 36.111484499999996 60.3323555 35.812713599999995 60.3323555 35.5063057 C 60.3323555 33.535598799999995 57.702781699999996 31.847261399999997 53.9645424 31.1346417 C 52.7431793 30.9018193 51.4046364 30.7721634 49.9992981 30.7721634 C 48.594173399999995 30.7721634 47.255840299999996 30.9018192 46.0346146 31.1345711 C 42.2960968 31.8471203 39.6663132 33.5355263 39.6663132 35.5063057 C 39.6663132 35.8128548 39.7353478 36.1117668 39.856803899999996 36.4020538 C 39.8810539 36.4600143 39.9111176 36.5167847 39.9399223 36.5739746 z" stroke-linecap="round" />
</g>
</g>
</g>
<g transform="matrix(1.9211538461538462 0 0 1.9211538461538462 642.9182326923079 637.2737668341704)" id="text-logo"  >
<g style=""  paint-order="stroke"   >
		<g transform="matrix(1 0 0 1 -5.684342e-14 0)" id="text-logo-path-0"  >
<path style="stroke: none; stroke-width: 0; stroke-dasharray: none; stroke-linecap: butt; stroke-dashoffset: 0; stroke-linejoin: miter; stroke-miterlimit: 4; fill: rgb(7,55,84); fill-rule: nonzero; opacity: 1;"  paint-order="stroke"  transform=" translate(-222.86, 19.744999999999997)" d="M 25.23 -4.15 L 25.61 -3.72 L 25.17 0 L 5.58 0 L 5.89 -11.97 L 5.58 -39.74 L 10.66 -39.74 L 10.35 -12.4 L 10.54 -4.15 L 25.23 -4.15 Z M 56.3 -39.74 L 69.56 0 L 64.48 0 L 63.55 -3.97 L 61.32 -10.79 L 52.39 -10.97 L 44.33 -10.79 L 41.91 -4.22 L 40.92 0 L 35.96 0 L 50.53 -39.74 L 56.3 -39.74 Z M 52.82 -14.88 L 59.95 -15 L 53.51 -34.6 L 53.07 -34.6 L 45.88 -15 L 52.82 -14.88 Z M 95.42 -14.38 L 95.36 -11.59 L 95.48 0 L 90.58 0 L 90.83 -11.59 L 90.77 -14.2 L 78.18 -39.74 L 83.51 -39.74 L 84.32 -37.51 L 93 -19.65 L 93.43 -19.65 L 102.98 -37.39 L 103.91 -39.74 L 109.12 -39.74 L 95.42 -14.38 Z M 147.44 -4.34 L 147.75 -3.84 L 147.37 0 L 125.05 0 L 125.36 -11.97 L 125.05 -39.74 L 147.44 -39.74 L 147.68 -39.25 L 147.31 -35.4 L 137.95 -35.59 L 130.08 -35.46 L 129.95 -22.44 L 137.39 -22.32 L 143.96 -22.51 L 144.34 -22.07 L 143.9 -18.23 L 136.96 -18.35 L 129.89 -18.29 L 129.83 -12.4 L 130.01 -4.15 L 137.89 -4.09 L 147.44 -4.34 Z M 180.42 -16.06 Q 184.51 -9.3 190.71 -1.18 L 190.71 -1.18 L 190.65 -0.56 Q 188.42 0.31 186.06 0.56 L 186.06 0.56 L 185.38 0.12 Q 180.3 -7.5 176.27 -14.76 L 176.27 -14.76 L 169.01 -14.76 L 169.01 -12.4 L 169.26 0 L 164.24 0 L 164.55 -11.97 L 164.24 -39.74 L 176.39 -39.8 Q 182.22 -39.8 185.41 -36.86 Q 188.6 -33.91 188.6 -28.46 L 188.6 -28.46 Q 188.6 -24.37 186.47 -21.11 Q 184.33 -17.86 180.42 -16.06 L 180.42 -16.06 Z M 169.26 -35.53 L 169.07 -18.97 L 176.51 -18.79 Q 183.46 -20.77 183.46 -28.02 L 183.46 -28.02 Q 183.46 -31.81 181.41 -33.7 Q 179.37 -35.59 175.27 -35.71 L 175.27 -35.71 L 169.26 -35.53 Z M 230.33 -4.34 L 230.64 -3.84 L 230.27 0 L 207.95 0 L 208.26 -11.97 L 207.95 -39.74 L 230.33 -39.74 L 230.58 -39.25 L 230.21 -35.4 L 220.84 -35.59 L 212.97 -35.46 L 212.85 -22.44 L 220.29 -22.32 L 226.86 -22.51 L 227.23 -22.07 L 226.8 -18.23 L 219.85 -18.35 L 212.78 -18.29 L 212.72 -12.4 L 212.91 -4.15 L 220.78 -4.09 L 230.33 -4.34 Z M 261.52 -39.99 Q 270.01 -39.99 274.54 -35.15 Q 279.06 -30.32 279.06 -21.27 L 279.06 -21.27 Q 279.06 -10.79 274.16 -5.21 Q 269.27 0.37 260.09 0.37 L 260.09 0.37 Q 257.55 0.37 253.92 0.28 Q 250.29 0.19 247.19 0 L 247.19 0 L 247.13 0 L 247.44 -11.97 L 247.13 -39.74 L 247.19 -39.74 L 261.52 -39.99 Z M 260.9 -3.78 Q 267.22 -3.78 270.6 -7.91 Q 273.98 -12.03 273.98 -20.21 L 273.98 -20.21 Q 273.98 -35.84 261.14 -35.84 L 261.14 -35.84 Q 257.24 -35.84 252.15 -35.59 L 252.15 -35.59 L 251.91 -12.4 L 252.09 -4.15 Q 254.01 -3.97 256.71 -3.88 Q 259.41 -3.78 260.9 -3.78 L 260.9 -3.78 Z M 315.95 -4.15 L 316.32 -3.72 L 315.89 0 L 296.3 0 L 296.61 -11.97 L 296.3 -39.74 L 301.38 -39.74 L 301.07 -12.4 L 301.26 -4.15 L 315.95 -4.15 Z M 347.01 -39.74 L 360.28 0 L 355.2 0 L 354.27 -3.97 L 352.04 -10.79 L 343.11 -10.97 L 335.05 -10.79 L 332.63 -4.22 L 331.64 0 L 326.68 0 L 341.25 -39.74 L 347.01 -39.74 Z M 343.54 -14.88 L 350.67 -15 L 344.22 -34.6 L 343.79 -34.6 L 336.6 -15 L 343.54 -14.88 Z M 393.39 -20.71 Q 401.82 -19.03 401.82 -11.1 L 401.82 -11.1 Q 401.82 -5.46 397.73 -2.6 Q 393.64 0.25 385.52 0.25 L 385.52 0.25 Q 380.06 0.25 376.77 0 L 376.77 0 L 376.71 0 L 377.02 -11.97 L 376.71 -39.74 L 387.75 -39.8 Q 393.33 -39.8 396.34 -37.32 Q 399.34 -34.84 399.34 -30.13 L 399.34 -30.13 Q 399.34 -26.78 397.79 -24.37 Q 396.24 -21.95 393.39 -20.71 L 393.39 -20.71 Z M 394.26 -29.57 Q 394.26 -32.8 392.49 -34.26 Q 390.72 -35.71 386.76 -35.71 L 386.76 -35.71 L 381.73 -35.71 L 381.61 -22.38 L 388.43 -22.2 Q 394.26 -23.56 394.26 -29.57 L 394.26 -29.57 Z M 386.26 -3.91 Q 391.34 -3.91 394.07 -5.83 Q 396.8 -7.75 396.8 -11.35 L 396.8 -11.35 Q 396.8 -17.42 389.17 -18.29 L 389.17 -18.29 L 381.55 -18.23 L 381.49 -12.4 L 381.67 -4.09 Q 384.09 -3.91 386.26 -3.91 L 386.26 -3.91 Z M 430.09 -40.05 Q 434.37 -40.05 438.96 -38.19 L 438.96 -38.19 L 438.15 -33.42 L 437.29 -33.17 Q 435.49 -34.53 433.47 -35.28 Q 431.46 -36.02 429.47 -36.02 L 429.47 -36.02 Q 427.18 -36.02 425.48 -35.09 Q 423.77 -34.16 422.87 -32.67 Q 421.97 -31.19 421.97 -29.57 L 421.97 -29.57 Q 421.97 -27.9 423 -26.63 Q 424.02 -25.36 425.57 -24.43 Q 427.12 -23.5 429.78 -22.2 L 429.78 -22.2 Q 433.13 -20.65 435.18 -19.31 Q 437.22 -17.98 438.68 -15.93 Q 440.14 -13.89 440.14 -10.97 L 440.14 -10.97 Q 440.14 -7.87 438.46 -5.27 Q 436.79 -2.67 433.75 -1.12 Q 430.71 0.43 426.81 0.43 L 426.81 0.43 Q 424.2 0.43 421.38 -0.28 Q 418.56 -0.99 416.14 -2.36 L 416.14 -2.36 L 416.76 -7.44 L 417.45 -7.75 Q 419.62 -5.64 422.25 -4.62 Q 424.89 -3.6 427.3 -3.6 L 427.3 -3.6 Q 429.66 -3.6 431.49 -4.53 Q 433.32 -5.46 434.28 -7.01 Q 435.24 -8.56 435.24 -10.29 L 435.24 -10.29 Q 435.24 -12.9 433.26 -14.48 Q 431.27 -16.06 427.24 -17.92 L 427.24 -17.92 Q 423.96 -19.53 421.97 -20.8 Q 419.99 -22.07 418.56 -24.09 Q 417.14 -26.1 417.14 -29.02 L 417.14 -29.02 Q 417.14 -32.05 418.78 -34.6 Q 420.42 -37.14 423.37 -38.59 Q 426.31 -40.05 430.09 -40.05 L 430.09 -40.05 Z" stroke-linecap="round" />
</g>
</g>
</g>
<g transform="matrix(1.9211538461538462 0 0 1.9211538461538462 640.2406598461038 719.2263476034013)" id="tagline-b222dd52-15f3-4625-9615-119c38ad0225-logo"  >
<g style=""  paint-order="stroke"   >
		<g transform="matrix(1 0 0 1 0 0)" id="tagline-b222dd52-15f3-4625-9615-119c38ad0225-logo-path-0"  >
<path style="stroke: none; stroke-width: 0; stroke-dasharray: none; stroke-linecap: butt; stroke-dashoffset: 0; stroke-linejoin: miter; stroke-miterlimit: 4; fill: rgb(11,82,127); fill-rule: nonzero; opacity: 1;"  paint-order="stroke"  transform=" translate(-210.59500000000003, 3.1899999999999995)" d="M 4.88 -0.8 L 4.96 -0.72 L 4.87 0 L 1.08 0 L 1.14 -2.32 L 1.08 -7.69 L 2.06 -7.69 L 2 -2.4 L 2.04 -0.8 L 4.88 -0.8 Z M 15.1 -7.69 L 17.66 0 L 16.68 0 L 16.5 -0.77 L 16.07 -2.09 L 14.34 -2.12 L 12.78 -2.09 L 12.31 -0.82 L 12.12 0 L 11.16 0 L 13.98 -7.69 L 15.1 -7.69 Z M 14.42 -2.88 L 15.8 -2.9 L 14.56 -6.7 L 14.47 -6.7 L 13.08 -2.9 L 14.42 -2.88 Z M 26.87 -2.78 L 26.86 -2.24 L 26.88 0 L 25.93 0 L 25.98 -2.24 L 25.97 -2.75 L 23.53 -7.69 L 24.56 -7.69 L 24.72 -7.26 L 26.4 -3.8 L 26.48 -3.8 L 28.33 -7.24 L 28.51 -7.69 L 29.52 -7.69 L 26.87 -2.78 Z M 41.14 -0.84 L 41.2 -0.74 L 41.12 0 L 36.8 0 L 36.86 -2.32 L 36.8 -7.69 L 41.14 -7.69 L 41.18 -7.6 L 41.11 -6.85 L 39.3 -6.89 L 37.78 -6.86 L 37.75 -4.34 L 39.19 -4.32 L 40.46 -4.36 L 40.54 -4.27 L 40.45 -3.53 L 39.11 -3.55 L 37.74 -3.54 L 37.73 -2.4 L 37.76 -0.8 L 39.29 -0.79 L 41.14 -0.84 Z M 51.72 -3.11 Q 52.51 -1.8 53.71 -0.23 L 53.71 -0.23 L 53.7 -0.11 Q 53.27 0.06 52.81 0.11 L 52.81 0.11 L 52.68 0.02 Q 51.7 -1.45 50.92 -2.86 L 50.92 -2.86 L 49.51 -2.86 L 49.51 -2.4 L 49.56 0 L 48.59 0 L 48.65 -2.32 L 48.59 -7.69 L 50.94 -7.7 Q 52.07 -7.7 52.69 -7.13 Q 53.3 -6.56 53.3 -5.51 L 53.3 -5.51 Q 53.3 -4.72 52.89 -4.09 Q 52.48 -3.46 51.72 -3.11 L 51.72 -3.11 Z M 49.56 -6.88 L 49.52 -3.67 L 50.96 -3.64 Q 52.31 -4.02 52.31 -5.42 L 52.31 -5.42 Q 52.31 -6.16 51.91 -6.52 Q 51.52 -6.89 50.72 -6.91 L 50.72 -6.91 L 49.56 -6.88 Z M 62.23 -7.69 L 62.17 -2.4 L 62.22 0 L 61.25 0 L 61.31 -2.32 L 61.25 -7.69 L 62.23 -7.69 Z M 76.43 -7.72 L 76.37 -2.26 L 76.39 0 L 75.38 0 L 71.4 -6.16 L 71.34 -6.16 L 71.33 -2.53 L 71.34 0 L 70.48 0 L 70.51 -2.28 L 70.49 -7.69 L 71.48 -7.69 L 75.46 -1.54 L 75.54 -1.54 L 75.53 -7.64 L 76.43 -7.72 Z M 87.54 -7.75 Q 88.75 -7.75 89.8 -7.21 L 89.8 -7.21 L 89.6 -6.3 L 89.48 -6.28 Q 88.91 -6.64 88.42 -6.79 Q 87.94 -6.95 87.4 -6.95 L 87.4 -6.95 Q 84.79 -6.95 84.79 -3.73 L 84.79 -3.73 Q 84.79 -2.18 85.4 -1.46 Q 86 -0.73 87.28 -0.73 L 87.28 -0.73 Q 87.61 -0.73 87.95 -0.79 Q 88.3 -0.85 88.84 -1.02 L 88.84 -1.02 L 88.86 -1.92 L 88.85 -3.07 L 89.75 -3.14 L 89.72 -2.05 L 89.77 -0.37 Q 88.99 -0.13 88.39 -0.02 Q 87.79 0.08 87.23 0.08 L 87.23 0.08 Q 85.51 0.08 84.65 -0.89 Q 83.8 -1.86 83.8 -3.7 L 83.8 -3.7 Q 83.8 -5.68 84.77 -6.71 Q 85.74 -7.75 87.54 -7.75 L 87.54 -7.75 Z M 108.77 -3.11 Q 109.56 -1.8 110.76 -0.23 L 110.76 -0.23 L 110.75 -0.11 Q 110.32 0.06 109.86 0.11 L 109.86 0.11 L 109.73 0.02 Q 108.74 -1.45 107.96 -2.86 L 107.96 -2.86 L 106.56 -2.86 L 106.56 -2.4 L 106.61 0 L 105.64 0 L 105.7 -2.32 L 105.64 -7.69 L 107.99 -7.7 Q 109.12 -7.7 109.73 -7.13 Q 110.35 -6.56 110.35 -5.51 L 110.35 -5.51 Q 110.35 -4.72 109.94 -4.09 Q 109.52 -3.46 108.77 -3.11 L 108.77 -3.11 Z M 106.61 -6.88 L 106.57 -3.67 L 108.01 -3.64 Q 109.36 -4.02 109.36 -5.42 L 109.36 -5.42 Q 109.36 -6.16 108.96 -6.52 Q 108.56 -6.89 107.77 -6.91 L 107.77 -6.91 L 106.61 -6.88 Z M 122.63 -0.84 L 122.69 -0.74 L 122.62 0 L 118.3 0 L 118.36 -2.32 L 118.3 -7.69 L 122.63 -7.69 L 122.68 -7.6 L 122.6 -6.85 L 120.79 -6.89 L 119.27 -6.86 L 119.24 -4.34 L 120.68 -4.32 L 121.96 -4.36 L 122.03 -4.27 L 121.94 -3.53 L 120.6 -3.55 L 119.23 -3.54 L 119.22 -2.4 L 119.26 -0.8 L 120.78 -0.79 L 122.63 -0.84 Z M 133.07 -7.69 L 135.64 0 L 134.65 0 L 134.47 -0.77 L 134.04 -2.09 L 132.31 -2.12 L 130.75 -2.09 L 130.28 -0.82 L 130.09 0 L 129.13 0 L 131.95 -7.69 L 133.07 -7.69 Z M 132.4 -2.88 L 133.78 -2.9 L 132.53 -6.7 L 132.44 -6.7 L 131.05 -2.9 L 132.4 -2.88 Z M 146.78 -0.8 L 146.86 -0.72 L 146.77 0 L 142.98 0 L 143.04 -2.32 L 142.98 -7.69 L 143.96 -7.69 L 143.9 -2.4 L 143.94 -0.8 L 146.78 -0.8 Z M 154.99 -7.69 L 154.93 -2.4 L 154.98 0 L 154.01 0 L 154.07 -2.32 L 154.01 -7.69 L 154.99 -7.69 Z M 167.5 -7.69 L 167.57 -7.6 L 167.5 -6.85 L 166.15 -6.92 L 165.37 -6.92 L 165.34 -2.4 L 165.37 0 L 164.4 0 L 164.47 -2.32 L 164.41 -6.92 L 163.63 -6.92 L 162.26 -6.85 L 162.2 -6.95 L 162.28 -7.69 L 167.5 -7.69 Z M 177.34 -2.78 L 177.32 -2.24 L 177.35 0 L 176.4 0 L 176.45 -2.24 L 176.44 -2.75 L 174 -7.69 L 175.03 -7.69 L 175.19 -7.26 L 176.87 -3.8 L 176.95 -3.8 L 178.8 -7.24 L 178.98 -7.69 L 179.99 -7.69 L 177.34 -2.78 Z M 186.47 -1.04 Q 186.97 -0.73 186.97 -0.24 L 186.97 -0.24 Q 186.97 0.54 185.84 1.37 L 185.84 1.37 L 185.52 1.07 L 185.52 0.98 Q 186.18 0.47 186.18 -0.07 L 186.18 -0.07 Q 186.18 -0.4 185.81 -0.64 L 185.81 -0.64 L 185.81 -0.73 Q 186.14 -0.96 186.47 -1.04 L 186.47 -1.04 Z M 206.02 -4.01 Q 207.65 -3.68 207.65 -2.15 L 207.65 -2.15 Q 207.65 -1.06 206.86 -0.5 Q 206.06 0.05 204.49 0.05 L 204.49 0.05 Q 203.44 0.05 202.8 0 L 202.8 0 L 202.79 0 L 202.85 -2.32 L 202.79 -7.69 L 204.92 -7.7 Q 206 -7.7 206.59 -7.22 Q 207.17 -6.74 207.17 -5.83 L 207.17 -5.83 Q 207.17 -5.18 206.87 -4.72 Q 206.57 -4.25 206.02 -4.01 L 206.02 -4.01 Z M 206.18 -5.72 Q 206.18 -6.35 205.84 -6.63 Q 205.5 -6.91 204.73 -6.91 L 204.73 -6.91 L 203.76 -6.91 L 203.74 -4.33 L 205.06 -4.3 Q 206.18 -4.56 206.18 -5.72 L 206.18 -5.72 Z M 204.64 -0.76 Q 205.62 -0.76 206.15 -1.13 Q 206.68 -1.5 206.68 -2.2 L 206.68 -2.2 Q 206.68 -3.37 205.2 -3.54 L 205.2 -3.54 L 203.72 -3.53 L 203.71 -2.4 L 203.75 -0.79 Q 204.22 -0.76 204.64 -0.76 L 204.64 -0.76 Z M 220.74 -7.69 L 220.73 -3.78 L 220.72 -2.92 Q 220.74 -1.5 219.97 -0.71 Q 219.2 0.08 217.79 0.08 L 217.79 0.08 Q 216.43 0.08 215.71 -0.67 Q 214.98 -1.43 215 -2.81 L 215 -2.81 L 215.02 -3.85 L 215 -7.69 L 215.95 -7.69 L 215.92 -2.93 Q 215.9 -1.85 216.4 -1.3 Q 216.89 -0.76 217.86 -0.76 L 217.86 -0.76 Q 218.83 -0.76 219.34 -1.27 Q 219.84 -1.79 219.83 -2.81 L 219.83 -2.81 L 219.78 -7.69 L 220.74 -7.69 Z M 229.73 -7.69 L 229.67 -2.4 L 229.72 0 L 228.74 0 L 228.8 -2.32 L 228.74 -7.69 L 229.73 -7.69 Z M 241.73 -0.8 L 241.8 -0.72 L 241.72 0 L 237.92 0 L 237.98 -2.32 L 237.92 -7.69 L 238.91 -7.69 L 238.85 -2.4 L 238.88 -0.8 L 241.73 -0.8 Z M 251.74 -7.74 Q 253.38 -7.74 254.26 -6.8 Q 255.13 -5.87 255.13 -4.12 L 255.13 -4.12 Q 255.13 -2.09 254.18 -1.01 Q 253.24 0.07 251.46 0.07 L 251.46 0.07 Q 250.97 0.07 250.27 0.05 Q 249.56 0.04 248.96 0 L 248.96 0 L 248.95 0 L 249.01 -2.32 L 248.95 -7.69 L 248.96 -7.69 L 251.74 -7.74 Z M 251.62 -0.73 Q 252.84 -0.73 253.49 -1.53 Q 254.15 -2.33 254.15 -3.91 L 254.15 -3.91 Q 254.15 -6.94 251.66 -6.94 L 251.66 -6.94 Q 250.91 -6.94 249.92 -6.89 L 249.92 -6.89 L 249.88 -2.4 L 249.91 -0.8 Q 250.28 -0.77 250.81 -0.75 Q 251.33 -0.73 251.62 -0.73 L 251.62 -0.73 Z M 263.69 -7.69 L 263.63 -2.4 L 263.68 0 L 262.7 0 L 262.76 -2.32 L 262.7 -7.69 L 263.69 -7.69 Z M 277.88 -7.72 L 277.82 -2.26 L 277.85 0 L 276.84 0 L 272.86 -6.16 L 272.8 -6.16 L 272.78 -2.53 L 272.8 0 L 271.93 0 L 271.97 -2.28 L 271.94 -7.69 L 272.94 -7.69 L 276.91 -1.54 L 277 -1.54 L 276.98 -7.64 L 277.88 -7.72 Z M 289 -7.75 Q 290.21 -7.75 291.25 -7.21 L 291.25 -7.21 L 291.06 -6.3 L 290.94 -6.28 Q 290.36 -6.64 289.88 -6.79 Q 289.39 -6.95 288.85 -6.95 L 288.85 -6.95 Q 286.25 -6.95 286.25 -3.73 L 286.25 -3.73 Q 286.25 -2.18 286.85 -1.46 Q 287.46 -0.73 288.73 -0.73 L 288.73 -0.73 Q 289.07 -0.73 289.41 -0.79 Q 289.75 -0.85 290.29 -1.02 L 290.29 -1.02 L 290.32 -1.92 L 290.3 -3.07 L 291.2 -3.14 L 291.18 -2.05 L 291.23 -0.37 Q 290.45 -0.13 289.85 -0.02 Q 289.25 0.08 288.68 0.08 L 288.68 0.08 Q 286.97 0.08 286.11 -0.89 Q 285.25 -1.86 285.25 -3.7 L 285.25 -3.7 Q 285.25 -5.68 286.22 -6.71 Q 287.2 -7.75 289 -7.75 L 289 -7.75 Z M 311.53 -7.69 L 311.6 -7.6 L 311.53 -6.85 L 310.19 -6.92 L 309.41 -6.92 L 309.37 -2.4 L 309.41 0 L 308.44 0 L 308.51 -2.32 L 308.45 -6.92 L 307.67 -6.92 L 306.3 -6.85 L 306.24 -6.95 L 306.31 -7.69 L 311.53 -7.69 Z M 324.94 -7.69 L 324.89 -2.4 L 324.91 0 L 323.96 0 L 324.01 -2.32 L 324 -3.47 L 321.86 -3.48 L 319.91 -3.47 L 319.9 -2.4 L 319.93 0 L 318.98 0 L 319.02 -2.32 L 318.98 -7.69 L 319.94 -7.69 L 319.91 -4.28 L 321.95 -4.27 L 324 -4.28 L 323.96 -7.69 L 324.94 -7.69 Z M 337.51 -0.84 L 337.57 -0.74 L 337.5 0 L 333.18 0 L 333.24 -2.32 L 333.18 -7.69 L 337.51 -7.69 L 337.56 -7.6 L 337.49 -6.85 L 335.68 -6.89 L 334.15 -6.86 L 334.13 -4.34 L 335.57 -4.32 L 336.84 -4.36 L 336.91 -4.27 L 336.83 -3.53 L 335.48 -3.55 L 334.12 -3.54 L 334.1 -2.4 L 334.14 -0.8 L 335.66 -0.79 L 337.51 -0.84 Z M 355.26 -6.89 L 353.92 -6.86 L 353.89 -4.19 L 355.19 -4.16 L 356.44 -4.2 L 356.51 -4.1 L 356.42 -3.37 L 355.09 -3.41 L 353.88 -3.4 L 353.87 -2.4 L 353.92 0 L 352.94 0 L 353 -2.32 L 352.94 -7.69 L 357.04 -7.69 L 357.11 -7.6 L 357.02 -6.83 L 355.26 -6.89 Z M 369.66 -7.69 L 369.65 -3.78 L 369.64 -2.92 Q 369.66 -1.5 368.89 -0.71 Q 368.12 0.08 366.71 0.08 L 366.71 0.08 Q 365.35 0.08 364.63 -0.67 Q 363.9 -1.43 363.92 -2.81 L 363.92 -2.81 L 363.94 -3.85 L 363.92 -7.69 L 364.87 -7.69 L 364.84 -2.93 Q 364.82 -1.85 365.32 -1.3 Q 365.81 -0.76 366.78 -0.76 L 366.78 -0.76 Q 367.75 -0.76 368.26 -1.27 Q 368.76 -1.79 368.75 -2.81 L 368.75 -2.81 L 368.7 -7.69 L 369.66 -7.69 Z M 382.1 -7.69 L 382.18 -7.6 L 382.1 -6.85 L 380.76 -6.92 L 379.98 -6.92 L 379.94 -2.4 L 379.98 0 L 379.01 0 L 379.08 -2.32 L 379.02 -6.92 L 378.24 -6.92 L 376.87 -6.85 L 376.81 -6.95 L 376.88 -7.69 L 382.1 -7.69 Z M 395.05 -7.69 L 395.04 -3.78 L 395.03 -2.92 Q 395.05 -1.5 394.28 -0.71 Q 393.52 0.08 392.1 0.08 L 392.1 0.08 Q 390.74 0.08 390.02 -0.67 Q 389.29 -1.43 389.32 -2.81 L 389.32 -2.81 L 389.33 -3.85 L 389.32 -7.69 L 390.26 -7.69 L 390.23 -2.93 Q 390.22 -1.85 390.71 -1.3 Q 391.2 -0.76 392.17 -0.76 L 392.17 -0.76 Q 393.14 -0.76 393.65 -1.27 Q 394.15 -1.79 394.14 -2.81 L 394.14 -2.81 L 394.09 -7.69 L 395.05 -7.69 Z M 406.19 -3.11 Q 406.98 -1.8 408.18 -0.23 L 408.18 -0.23 L 408.17 -0.11 Q 407.74 0.06 407.28 0.11 L 407.28 0.11 L 407.15 0.02 Q 406.16 -1.45 405.38 -2.86 L 405.38 -2.86 L 403.98 -2.86 L 403.98 -2.4 L 404.03 0 L 403.06 0 L 403.12 -2.32 L 403.06 -7.69 L 405.41 -7.7 Q 406.54 -7.7 407.15 -7.13 Q 407.77 -6.56 407.77 -5.51 L 407.77 -5.51 Q 407.77 -4.72 407.36 -4.09 Q 406.94 -3.46 406.19 -3.11 L 406.19 -3.11 Z M 404.03 -6.88 L 403.99 -3.67 L 405.43 -3.64 Q 406.78 -4.02 406.78 -5.42 L 406.78 -5.42 Q 406.78 -6.16 406.38 -6.52 Q 405.98 -6.89 405.19 -6.91 L 405.19 -6.91 L 404.03 -6.88 Z M 420.05 -0.84 L 420.11 -0.74 L 420.04 0 L 415.72 0 L 415.78 -2.32 L 415.72 -7.69 L 420.05 -7.69 L 420.1 -7.6 L 420.02 -6.85 L 418.21 -6.89 L 416.69 -6.86 L 416.66 -4.34 L 418.1 -4.32 L 419.38 -4.36 L 419.45 -4.27 L 419.36 -3.53 L 418.02 -3.55 L 416.65 -3.54 L 416.64 -2.4 L 416.68 -0.8 L 418.2 -0.79 L 420.05 -0.84 Z" stroke-linecap="round" />
</g>
</g>
</g>
</svg>